<svg width="24" height="24" viewBox="0 0 24 24" fill="none" xmlns="http://www.w3.org/2000/svg">
<g id="Home">
<path id="Vector" fill-rule="evenodd" clip-rule="evenodd" d="M12.865 3.61109C12.3928 3.12007 11.6071 3.12007 11.135 3.61109L3.65498 11.3903C3.22731 11.8351 3.54253 12.5755 4.15956 12.5755H5.52724V20.0573C5.52724 20.4439 5.84064 20.7573 6.22724 20.7573H8.92724V16.6936C8.92724 15.4234 9.95698 14.3936 11.2272 14.3936H12.7727C14.043 14.3936 15.0727 15.4234 15.0727 16.6936V20.7573H17.7727C18.1593 20.7573 18.4727 20.4439 18.4727 20.0573V12.5755H19.8404C20.4574 12.5755 20.7726 11.8351 20.345 11.3903L12.865 3.61109ZM9.98163 2.50212C11.0833 1.35639 12.9166 1.35639 14.0183 2.50212L21.4983 10.2813C22.8488 11.6858 21.9448 13.9874 20.0727 14.1646V20.0573C20.0727 21.3275 19.0429 22.3573 17.7727 22.3573H14.3727C13.8756 22.3573 13.4727 21.9543 13.4727 21.4573V16.6936C13.4727 16.307 13.1593 15.9936 12.7727 15.9936H11.2272C10.8406 15.9936 10.5272 16.307 10.5272 16.6936V21.4573C10.5272 21.9543 10.1243 22.3573 9.62724 22.3573H6.22724C4.95699 22.3573 3.92724 21.3275 3.92724 20.0573V14.1646C2.05517 13.9874 1.15117 11.6858 2.50165 10.2813L9.98163 2.50212Z" fill="#FFFFFF"/>
</g>
</svg>
